<svg width="32" height="32" viewBox="0 0 32 32" fill="none" xmlns="http://www.w3.org/2000/svg">
<g clip-path="url(#clip0_1_2)">
<path d="M25.9357 9.85714H27.1428L26.2893 9.00359L19.5678 2.28216L18.7143 1.42861V2.63571V9.35714V9.85714H19.2143H25.9357ZM26 29.9286H26.5V29.4286V11.7857V11.2857H26H18.2857C18.0205 11.2857 17.7661 11.1804 17.5786 10.9928C17.3911 10.8053 17.2857 10.5509 17.2857 10.2857V2.57143V2.07143H16.7857H6H5.5V2.57143V29.4286V29.9286H6H26ZM20.1964 0.689266L27.8822 8.37498C28.0027 8.49551 28.0714 8.6612 28.0714 8.83214V30.8571C28.0714 31.2131 27.7846 31.5 27.4286 31.5H4.57143C4.21543 31.5 3.92857 31.2131 3.92857 30.8571V1.14286C3.92857 0.786856 4.21543 0.499999 4.57143 0.499999H19.7429C19.9121 0.499999 20.0747 0.567561 20.1964 0.689266Z" fill="white" stroke="white"/>
<path d="M12.8881 25.1364C12.2745 25.1364 11.7461 24.9915 11.3029 24.7017C10.8597 24.4119 10.5188 24.0128 10.2802 23.5043C10.0415 22.9957 9.92223 22.4148 9.92223 21.7614C9.92223 21.0966 10.0444 20.5099 10.2887 20.0014C10.5359 19.4901 10.8796 19.0909 11.32 18.804C11.7631 18.5142 12.2802 18.3693 12.8711 18.3693C13.3313 18.3693 13.7461 18.4545 14.1154 18.625C14.4847 18.7955 14.7873 19.0341 15.0231 19.3409C15.2589 19.6477 15.4052 20.0057 15.462 20.4148H14.4563C14.3796 20.1165 14.2092 19.8523 13.945 19.6222C13.6836 19.3892 13.3313 19.2727 12.8881 19.2727C12.4961 19.2727 12.1523 19.375 11.8569 19.5795C11.5643 19.7812 11.3356 20.0668 11.1708 20.4361C11.0089 20.8026 10.9279 21.233 10.9279 21.7273C10.9279 22.233 11.0075 22.6733 11.1665 23.0483C11.3285 23.4233 11.5558 23.7145 11.8484 23.9219C12.1438 24.1293 12.4904 24.233 12.8881 24.233C13.1495 24.233 13.3867 24.1875 13.5998 24.0966C13.8129 24.0057 13.9933 23.875 14.141 23.7045C14.2887 23.5341 14.3938 23.3295 14.4563 23.0909H15.462C15.4052 23.4773 15.2646 23.8253 15.0401 24.1349C14.8185 24.4418 14.5245 24.6861 14.158 24.8679C13.7944 25.0469 13.3711 25.1364 12.8881 25.1364ZM22.2844 18.4545L19.864 25H18.8413L16.4208 18.4545H17.5117L19.3185 23.6705H19.3867L21.1935 18.4545H22.2844Z" fill="white"/>
</g>
<defs>
<clipPath id="clip0_1_2">
<rect width="32" height="32" fill="white"/>
</clipPath>
</defs>
</svg>
